<svg width="16" height="16" viewBox="0 0 16 16" fill="none" xmlns="http://www.w3.org/2000/svg">
<path d="M9.41268 9.41319C9.22958 9.60968 9.00878 9.76729 8.76345 9.8766C8.51812 9.98591 8.25328 10.0447 7.98474 10.0494C7.7162 10.0542 7.44946 10.0048 7.20042 9.90418C6.95139 9.80359 6.72516 9.65387 6.53525 9.46396C6.34533 9.27404 6.19561 9.04782 6.09502 8.79878C5.99443 8.54975 5.94503 8.283 5.94977 8.01446C5.95451 7.74592 6.01329 7.48108 6.1226 7.23575C6.23191 6.99042 6.38952 6.76962 6.58602 6.58652M11.9593 11.9599C10.8197 12.8285 9.43209 13.3098 7.99935 13.3332C3.33268 13.3332 0.666016 7.99985 0.666016 7.99985C1.49528 6.45445 2.64544 5.10426 4.03935 4.03985L11.9593 11.9599ZM6.59935 2.82652C7.05824 2.71911 7.52806 2.66541 7.99935 2.66652C12.666 2.66652 15.3327 7.99985 15.3327 7.99985C14.928 8.75692 14.4454 9.46968 13.8927 10.1265L6.59935 2.82652Z" stroke="#18345E" stroke-linecap="round" stroke-linejoin="round"/>
<path d="M0.666016 0.666504L15.3327 15.3332" stroke="#18345E" stroke-linecap="round" stroke-linejoin="round"/>
</svg>
